Coordinates
version=1
nRows=7
nColumns=46
inDegrees=yes

Units are S.I. units (second, meters, Newtons, ...)
Angles are in degrees.

endheader
time	pelvis_tilt	pelvis_list	pelvis_rotation	pelvis_tx	pelvis_ty	pelvis_tz	bb_angle	bb_tx	bb_ty	bb_tz	hip_flexion_r	hip_adduction_r	hip_rotation_r	knee_angle_r	knee_angle_r_beta	ankle_angle_r	subtalar_angle_r	mtp_angle_r	crank_angle_r	hip_flexion_l	hip_adduction_l	hip_rotation_l	knee_angle_l	knee_angle_l_beta	ankle_angle_l	subtalar_angle_l	mtp_angle_l	crank_angle_l	lumbar_extension	lumbar_bending	lumbar_rotation	arm_flex_r	arm_add_r	arm_rot_r	elbow_flex_r	pro_sup_r	wrist_flex_r	wrist_dev_r	arm_flex_l	arm_add_l	arm_rot_l	elbow_flex_l	pro_sup_l	wrist_flex_l	wrist_dev_l
      7.50500000	    -15.53719381	      3.37685517	     -6.13526210	      0.33325511	      1.07200284	     -0.30056116	      0.00000000	      0.50000000	      0.00000000	      0.25000000	     43.92204972	     -5.24835196	      1.32791384	     41.55556784	      0.72528148	     -9.82250569	     -1.04620914	      0.00000000	      0.00000000	     67.61856205	     -9.55115395	      2.04768923	    111.77999528	      1.95092896	    -12.51007942	     -7.69025721	      0.00000000	      0.00000000	    -74.42569395	     -3.77974378	     -3.10393321	     64.97616579	    -13.31688291	     24.35629073	     90.69189513	     48.50073890	      0.00000000	      0.00000000	     60.33469277	    -38.34287897	     25.11882395	    103.79753421	     47.75275286	      0.00000000	      0.00000000
      7.51000000	    -15.73830553	      3.47489179	     -5.64553313	      0.33334412	      1.07050120	     -0.30055455	      0.00000000	      0.50000000	      0.00000000	      0.25000000	     42.70707630	     -5.83359594	      0.45829018	     40.04788766	      0.69896750	    -10.49472990	     -0.35328623	      0.00000000	      0.00000000	     69.44510644	     -8.87170293	      2.72632246	    113.29526734	      1.97737544	    -11.56124408	     -7.20414111	      0.00000000	      0.00000000	    -74.06430447	     -3.78528473	     -3.60395578	     64.29011728	    -13.27380650	     23.74495017	     90.88809169	     48.47027462	      0.00000000	      0.00000000	     60.80545619	    -39.32965970	     26.74569465	    104.29788630	     47.99910489	      0.00000000	      0.00000000
      7.51500000	    -15.98628813	      3.94634699	     -5.41794475	      0.33347537	      1.06921222	     -0.30011564	      0.00000000	      0.50000000	      0.00000000	      0.25000000	     41.72333300	     -6.50689371	      0.13358944	     38.71276786	      0.67566526	    -11.06931872	      0.09737812	      0.00000000	      0.00000000	     71.13768825	     -8.30143338	      2.76155425	    114.58848495	      1.99994635	    -10.76972198	     -7.49445381	      0.00000000	      0.00000000	    -73.70719624	     -4.17494749	     -4.29069347	     63.86978196	    -13.44124881	     23.60186438	     90.87289248	     48.45385653	      0.00000000	      0.00000000	     61.14485406	    -39.58146915	     26.94219939	    104.38289025	     48.02898216	      0.00000000	      0.00000000
      7.52000000	    -16.22331147	      4.24481681	     -5.12227751	      0.33346880	      1.06803593	     -0.29992640	      0.00000000	      0.50000000	      0.00000000	      0.25000000	     40.76931043	     -7.16395633	     -0.61639049	     37.52805022	      0.65498804	    -11.73718612	      0.68282113	      0.00000000	      0.00000000	     72.86709057	     -7.72154721	      3.00147636	    115.78147499	      2.02076795	     -9.66340565	     -7.97256190	      0.00000000	      0.00000000	    -73.38833602	     -4.41989853	     -4.90940389	     63.44313571	    -13.55401971	     23.43897438	     90.84756118	     48.43312961	      0.00000000	      0.00000000	     61.46761135	    -39.94227631	     27.27404033	    104.52417153	     48.08274741	      0.00000000	      0.00000000
      7.52500000	    -16.44554898	      4.49772106	     -4.84116782	      0.33354418	      1.06703910	     -0.29969100	      0.00000000	      0.50000000	      0.00000000	      0.25000000	     39.79276366	     -7.72188503	     -1.25200002	     36.38808755	      0.63509194	    -12.35803483	      1.40302941	      0.00000000	      0.00000000	     74.53422920	     -7.18320082	      3.24278835	    116.79034706	      2.03837609	     -8.86561282	     -8.29087772	      0.00000000	      0.00000000	    -73.09766897	     -4.66528206	     -5.44255483	     63.04077648	    -13.65694954	     23.26575827	     90.79620379	     48.40652185	      0.00000000	      0.00000000	     61.81050704	    -40.34727695	     27.65470208	    104.76225870	     48.15709613	      0.00000000	      0.00000000
      7.53000000	    -16.63575148	      4.75956597	     -4.61753062	      0.33361783	      1.06624815	     -0.29941809	      0.00000000	      0.50000000	      0.00000000	      0.25000000	     38.83689707	     -8.24203303	     -1.72182948	     35.37765461	      0.61745655	    -12.79673984	      2.10337606	      0.00000000	      0.00000000	     76.12630304	     -6.69335203	      3.42432372	    117.58007490	      2.05215944	     -8.45113562	     -8.36900991	      0.00000000	      0.00000000	    -72.89393331	     -4.99864656	     -6.03752070	     62.66606133	    -13.77095753	     23.06300987	     90.71730389	     48.37164745	      0.00000000	      0.00000000	     62.14353783	    -40.85482427	     28.15425036	    105.02007684	     48.24756088	      0.00000000	      0.00000000
      7.53500000	    -16.56321281	      5.02301656	     -4.39251816	      0.33373876	      1.06597763	     -0.29915454	      0.00000000	      0.50000000	      0.00000000	      0.25000000	     37.73398219	     -8.86822604	     -2.41869154	     34.67186383	      0.60513818	    -13.07791278	      3.17315225	      0.00000000	      0.00000000	     77.29871519	     -6.20681406	      3.43495281	    118.17309791	      2.06250965	     -7.98413613	     -8.87656236	      0.00000000	      0.00000000	    -73.06201253	     -5.35918291	     -6.94021328	     62.47467282	    -13.35062558	     22.38018645	     90.41488000	     48.24052933	      0.00000000	      0.00000000	     63.39603925	    -42.67000813	     31.04622618	    106.32759448	     48.73777026	      0.00000000	      0.00000000
